<svg width="100%" viewBox="0 0 48 26" fill="none" xmlns="http://www.w3.org/2000/svg">
    <path d="M47.8581 24.6703C47.5856 25.3312 46.9396 25.7606 46.2264 25.7606H33.3442V22.2246H41.9585L33.8633 14.1293C33.5347 13.8007 33.348 13.3489 33.348 12.8785C33.348 12.408 33.5347 11.9599 33.8633 11.6276L42.9965 3.53235H48L37.6159 12.8785L47.481 22.7436C47.9851 23.2477 48.1382 24.0094 47.8619 24.6703H47.8581Z" fill="currentColor"/>
    <path d="M22.2283 20.7608V25.7643L12.8822 15.3839L3.01704 25.2453C2.51296 25.7531 1.75123 25.9025 1.09032 25.6299C0.429405 25.3573 0 24.7114 0 23.9944V0H3.53606V19.7265L11.6313 11.6313C12.3221 10.9405 13.4423 10.9405 14.133 11.6313L22.2283 20.7608Z" fill="currentColor"/>
    <path d="M23.9979 0C23.0234 0 22.228 0.7916 22.228 1.7699V25.7681H25.7641V3.5398H47.9924V0.00373405H23.9942L23.9979 0Z" fill="currentColor" fill-opacity="0.6"/>
</svg>
